<svg height="200" viewBox="0 0 1024 1024" width="200" xmlns="http://www.w3.org/2000/svg"><path d="m342.773807 866.503966c-121.712039-57.319473-208.8087-175.682231-222.207871-315.631634l-55.830563.000001c18.98233 229.27994 210.66907 409.42788 444.787202 409.42788l24.565489-1.116427-141.809773-141.810797s-49.504484 49.130977-49.504484 49.130977zm33.126469-242.679111c-7.072069 0-13.771655-1.116427-19.354813-2.977821-5.955642-2.232854-10.793834-4.839215-14.888082-8.933463-4.094248-3.721765-7.444553-8.188496-9.677407-13.771655-2.232854-5.210675-3.350304-11.166317-3.350304-17.493419h-48.387034c0 13.399171 2.605338 25.310456 7.816013 35.359322 5.210675 10.04989 12.282744 18.61087 20.843724 25.681916 8.93244 6.699586 18.98233 11.910261 30.521131 15.260565 11.166317 3.721765 23.076578 5.583159 35.731806 5.583159 13.771655 0 26.799366-1.861394 38.337143-5.583159 11.910261-3.721765 22.332634-9.304923 30.893614-16.376992s15.633049-16.004509 20.47124-26.799366c4.839215-10.793834 7.444553-22.705118 7.444553-36.104289 0-7.072069-.743944-14.144138-2.605338-20.843724s-4.466732-13.027711-8.56098-18.98233c-3.721765-5.955642-8.93244-11.166317-14.888082-16.004509-6.327102-4.838192-13.771655-8.56098-22.705118-11.538801 7.444553-3.350304 13.771655-7.444553 19.354813-12.282744 5.583159-4.839215 10.04989-10.04989 13.771655-15.633049s6.327102-11.166317 8.188496-17.121959 2.605338-11.910261 2.605338-17.865903c0-13.399171-2.232854-25.310456-6.699586-35.731806s-10.793834-18.98233-18.98233-25.681916c-7.444553-7.072069-17.493419-12.282744-28.659737-16.004509-11.538801-3.349281-24.193005-5.210675-37.96466-5.210675-13.399171 0-25.681916 1.861394-37.220716 5.955642-11.166317 4.094248-21.216207 9.677407-29.404704 16.749476-7.816013 7.072069-14.144138 15.260565-18.98233 24.937972-4.466732 9.677407-6.699586 20.098757-6.699586 31.637558h48.387034c0-6.327102 1.116427-11.910261 3.350304-16.749476 2.232854-4.838192 5.210675-9.304923 9.304923-12.655228 4.094248-3.350304 8.56098-6.327102 14.144138-8.188496 5.583159-1.861394 11.166317-2.977821 17.865903-2.977821 14.888082 0 26.054399 3.721765 33.126468 11.538801 7.072069 7.444553 10.793834 18.238386 10.793834 32.010041 0 6.699586-1.116427 12.655228-2.977821 18.238386s-5.210675 10.04989-9.304923 13.771655-9.304923 6.699586-15.260565 8.933463-13.399171 3.350304-21.587668 3.350304h-28.659737v38.337143h28.659737c8.188496 0 15.633049.743944 22.332634 2.605338 6.699586 1.861394 12.282744 4.838192 16.749476 8.56098 4.466732 4.094248 8.188496 8.93244 10.793834 14.888082s3.721765 13.027711 3.721765 21.216207c0 15.260565-4.466732 26.799366-13.027711 34.615379-8.560978 8.559956-20.471239 12.281721-35.360344 12.281721zm318.236971-220.346477c-11.910261-12.282744-26.054399-21.960151-42.431392-28.659737-16.004509-6.699586-34.242895-10.04989-54.342676-10.04989h-87.840604v297.765731h85.60775c20.47124 0 39.45357-3.350304 56.203046-10.04989s31.265074-16.004509 43.176358-28.287253c11.910261-12.282744 21.216207-27.170826 27.54331-44.292785 6.327102-17.493419 9.677407-36.848233 9.677407-58.436924v-14.888082c0-21.587668-3.350304-40.942481-9.677407-58.436924-6.699585-17.49342-16.004508-32.381502-27.915792-44.664246zm-14.515598 117.617791c0 15.633049-1.861394 29.404704-5.210675 42.059931-3.721765 12.282744-8.93244 23.076578-16.004509 31.637558s-16.004509 15.260565-26.426883 19.727297c-10.793834 4.466732-23.076578 6.699586-36.848233 6.699586h-33.870412v-214.764342h36.104289c26.799366 0 47.270607 8.56098 61.042261 25.681916 14.144138 17.121959 21.216207 41.687448 21.216207 74.068949l.000001 14.889105zm-170.099073-454.093149-24.565489 1.116427 141.810796 141.810796 49.503461-49.503461c121.712039 57.691957 208.807676 175.682231 221.835388 315.631634h55.830563c-18.608824-228.907456-210.295564-409.055396-444.414719-409.055396z" fill="#6a6172"/></svg>