<svg enable-background="new 0 0 1024 1024" viewBox="0 0 1024 1024" xmlns="http://www.w3.org/2000/svg" xmlns:xlink="http://www.w3.org/1999/xlink"><linearGradient id="a" gradientUnits="userSpaceOnUse" x1="511.4615" x2="511.4615" y1="492.6213" y2="844.7413"><stop offset=".00000045286" stop-color="#d0ddf8"/><stop offset="1" stop-color="#fff"/></linearGradient><linearGradient id="b"><stop offset="0" stop-color="#fff" stop-opacity="0"/><stop offset="1" stop-color="#9db9e0"/></linearGradient><linearGradient id="c" gradientUnits="userSpaceOnUse" x1="700.8628" x2="525.1198" xlink:href="#b" y1="794.3509" y2="489.955"/><linearGradient id="d" gradientUnits="userSpaceOnUse" x1="385.6444" x2="337.3146" xlink:href="#b" y1="721.5754" y2="637.8658"/><linearGradient id="e" gradientUnits="userSpaceOnUse" x1="511.4615" x2="511.4615" y1="178.0279" y2="561.4163"><stop offset=".00000045286" stop-color="#d0ddf8"/><stop offset="1" stop-color="#fff" stop-opacity="0"/></linearGradient><linearGradient id="f" gradientUnits="userSpaceOnUse" x1="408.1259" x2="559.1891" y1="340.4774" y2="602.1266"><stop offset=".00000044753" stop-color="#dfe7f8"/><stop offset="1" stop-color="#4d82f8"/></linearGradient><linearGradient id="g" gradientUnits="userSpaceOnUse" x1="566.1598" x2="620.6395" y1="511.4275" y2="605.7891"><stop offset=".00000044753" stop-color="#dfe7f8"/><stop offset="1" stop-color="#7aa1f8"/></linearGradient><linearGradient id="h" gradientUnits="userSpaceOnUse" x1="428.6072" x2="538.7077" y1="339.4731" y2="339.4731"><stop offset=".00000044753" stop-color="#cedbf8"/><stop offset="1" stop-color="#92b2f8"/></linearGradient><ellipse cx="511.46" cy="668.68" fill="url(#a)" rx="370.98" ry="176.06"/><path d="m851.14 707.59-263.53 95.54-212.77-226.41 203.99-24.68z" fill="url(#c)"/><path d="m406.46 709.55-47.8 13.37-25.31-82.77 14.56-3.41z" fill="url(#d)"/><path d="m727.99 228.76v332.66h-433.05c.72-165.43 1.39-190.87 2.12-356.36h96.99c.18 29.51.18 42.33 0 42.81v.06s.12-.06.18-.12v-.18c0-8.71 7.01-15.72 15.72-15.72s15.72 7.01 15.72 15.72v9.31h69.29v-78.91h62.16v113.74c-.06.24-.06.42-.06.67v38.27c0 5.62 4.53 10.16 10.16 10.16 5.56 0 10.1-4.53 10.1-10.16v-29.81c19.53-.06 33.68-.12 43.05-.12s13.97.06 14.39.12c1.51-.18 0-23.1 0-23.1h29.57v27.15c0 4.11 3.33 7.44 7.44 7.44s7.44-3.33 7.44-7.44v-76.19z" fill="url(#e)"/><g fill="#7aa1f8" opacity=".6"><path d="m326.05 211.44c-6.42 0-11.65-5.22-11.65-11.65s5.22-11.65 11.65-11.65 11.65 5.22 11.65 11.65-5.23 11.65-11.65 11.65zm0-16.82c-2.85 0-5.17 2.32-5.17 5.17s2.32 5.17 5.17 5.17 5.17-2.32 5.17-5.17-2.32-5.17-5.17-5.17z"/><circle cx="323.94" cy="381.09" r="8.41"/><circle cx="648.35" cy="486.9" r="17.62"/><circle cx="632.64" cy="305.28" r="6.95"/><circle cx="732.81" cy="250.23" r="5.99"/><circle cx="796.89" cy="386.39" r="8.28"/><circle cx="678.73" cy="620.91" r="7.83"/><path d="m568.56 219.85c-6.42 0-11.65-5.22-11.65-11.65s5.22-11.65 11.65-11.65 11.65 5.22 11.65 11.65-5.23 11.65-11.65 11.65zm0-16.82c-2.85 0-5.17 2.32-5.17 5.17s2.32 5.17 5.17 5.17 5.17-2.32 5.17-5.17-2.32-5.17-5.17-5.17z"/><path d="m452.4 677.61c-6.42 0-11.65-5.22-11.65-11.65s5.22-11.65 11.65-11.65 11.65 5.22 11.65 11.65-5.23 11.65-11.65 11.65zm0-16.81c-2.85 0-5.17 2.32-5.17 5.17s2.32 5.17 5.17 5.17 5.17-2.32 5.17-5.17c0-2.86-2.32-5.17-5.17-5.17z"/><path d="m243.79 484.78h-22.49c-1.96 0-3.55-1.59-3.55-3.55 0-1.96 1.59-3.55 3.55-3.55h22.48c1.96 0 3.55 1.59 3.55 3.55.01 1.96-1.58 3.55-3.54 3.55z"/><path d="m228.86 492.33v-22.2c0-2.04 1.65-3.69 3.69-3.69 2.04 0 3.69 1.65 3.69 3.69v22.2c0 2.04-1.65 3.69-3.69 3.69-2.04.01-3.69-1.65-3.69-3.69z"/><path d="m243.86 333.61h-14.6c-1.27 0-2.3-1.03-2.3-2.3 0-1.27 1.03-2.3 2.3-2.3h14.6c1.27 0 2.3 1.03 2.3 2.3.01 1.27-1.02 2.3-2.3 2.3z"/><path d="m234.17 338.52v-14.42c0-1.32 1.07-2.4 2.4-2.4 1.32 0 2.4 1.07 2.4 2.4v14.41c0 1.32-1.07 2.4-2.4 2.4-1.33 0-2.4-1.07-2.4-2.39z"/><path d="m435 289.66c-6.67-9.69-13.34-19.37-20.01-29.06 1.13-2.15 2.26-4.3 3.39-6.44 4.97.26 9.95.53 14.92.79.56 11.57 1.13 23.14 1.7 34.71z"/><path d="m427.59 294.06c-9.25-1.7-18.49-3.41-27.74-5.11-.57-1.85-1.15-3.71-1.73-5.56 2.96-2.66 5.92-5.33 8.88-7.99 6.87 6.22 13.73 12.44 20.59 18.66z"/><path d="m439.59 285.06c.69-8.3 1.39-16.6 2.08-24.9 1.58-.67 3.17-1.34 4.75-2.01 2.61 2.38 5.21 4.76 7.82 7.13-4.89 6.59-9.77 13.19-14.65 19.78z"/></g><g clip-rule="evenodd" fill-rule="evenodd"><path d="m340.07 502.35c-1.73 0-3.14 1.52-3.14 3.4v10.46c0 1.88 1.4 3.4 3.14 3.4s3.14-1.52 3.14-3.4v-10.46c0-1.88-1.4-3.4-3.14-3.4z" fill="#f5986a"/><path d="m344.26 496.6c-5.6-.38-6.46 3.35-6.31 6.22-.3-.25-.67-.49-1.01-.47-1.16.07-1.05 1.57-1.05 1.57s-.15.62.52 1.57c.5.72 1.9 1.3 2.42 1.5l.2.6s.83 1.77 1.57 2.61c1.04 1.19 1.57 1.57 1.57 1.57s1 .77 2.09 1.05c1 .25 2.09 0 2.09 0s1.32-.16 1.57-2.09c.15-1.19.21-2.68.21-4.16v-.37c-.02-2.81-.21-5.41-.21-5.41s-.33-3.97-3.66-4.19z" fill="#f8ad72"/><path d="m342.16 501.31s3.42.65 5.23 0c1.85-.66 2.09-2.61 2.09-2.61s.05-1.46-.52-2.61c-.45-.91-1.57-1.57-1.57-1.57s-.95-.7-2.09-.52c-.91.14-1.57 1.05-1.57 1.05s-1.19 1.18-2.09 1.57c-.93.4-2.09 0-2.09 0s-1.82-.42-3.14 1.05c-2 2.23-1.57 5.23-1.57 5.23s.33 1.95 1.05 3.66c.58 1.4 1.57 2.09 1.57 2.09s.52.38 1.05 0c.59-.43 0-1.05 0-1.05l-.52-1.05s-2.06 0-2.09-3.14c-.01-.52 1.05-.52 1.05-.52s.6-.01 1.05.52c.25.29.52 1.57.52 1.57s.22-2.55 1.05-3.14c.97-.72 2.59-.53 2.59-.53z" fill="#272b73"/><path d="m328.18 624.71-3.11 4.84 13.19 8.49s1.06-1.38.38-3.49-3.83-3.71-3.83-3.71-1.06-.61-1.48-1.57c-.32-.74-.31-1.45-.31-1.45z" fill="#262a71"/><path d="m352.1 564.06 2.61 25.63s.11.78 0 1.57c-.15 1.02-.52 2.09-.52 2.09l-18.83 36.08-6.28-4.18s4.17-16.96 7.84-26.15c1.52-3.81 5.23-6.28 5.23-6.28s-4.85-9.27-7.32-17.78c-1.33-4.57-1.05-10.98-1.05-10.98z" fill="#151145"/><path d="m347.39 563.01s-.48 15.99-2.09 31.9c-2 19.76-5.23 40.27-5.23 40.27h-5.75s-2.83-18.96-3.14-31.9c-.19-8.13 1.57-12.55 1.57-12.55s-1.8-7.82-3.14-15.69c-.95-5.59-1.05-12.03-1.05-12.03z" fill="#27327b"/><path d="m334.32 635.18v5.75h15.69s.15-1.73-1.57-3.14c-1.71-1.4-5.23-1.05-5.23-1.05s-1.22.06-2.09-.52c-.67-.45-1.05-1.05-1.05-1.05h-5.75z" fill="#2b3682"/><path d="m360.85 533.01s2.5-.9 3.56-1.01c.87-.09-.05 1.17-.05 1.17s.34.29 1.17.05c.36-.1 1.41-.72 1.68-.86.44-.24.71-.2.71-.2s2.1.26.56 3.3c-.86 1.69-6.25 3.7-6.25 3.7z" fill="#f48d67"/><path d="m350.68 521.51-4.86 14.59 14.82-3.41 1.32 6.16-21.17 5.88s-.96-.06-1.57-.51c-.65-.48-.96-1.35-.96-1.35l-2.08-8.66z" fill="#7aa1f8"/><path d="m352.1 523.27v40.79h-26.15v-40.27s-.04-1.98 1.05-3.66c1.07-1.65 3.14-2.61 3.14-2.61l5.68-3.06 1.11-.6s.11.29.31.71c.27.53.7 1.28 1.26 1.9 1.31 1.46 3.14 2.62 3.14 2.62s.71-.37 1.05-1.05c.27-.54.4-1.22.47-1.66v-.02c.04-.25.05-.41.05-.41s.41.04 1.05.17c1.31.26 3.57.91 5.22 2.44 2.26 2.09 2.62 4.71 2.62 4.71z" fill="#7aa1f8"/><path d="m338.01 512.67s-.06-2.66.18-3.69c.19-.86 1.09.42 1.09.42s.38-.23.42-1.09c.02-.37-.23-1.56-.28-1.86-.08-.49.04-.74.04-.74s.91-1.91 3.31.53c1.33 1.35 1.51 7.11 1.51 7.11z" fill="#ef8d61"/><path d="m344.51 513.16-.25 2.96-.41 4.84v.02l-1.28 15.4c0 .03-.01.79-.88 1.41-.48.33-1.54.59-1.54.59l-14.2 3.21v-9.22l8.97-1.2 1.77-12.68.55-3.92.24-1.73z" fill="#5a8fed"/></g><path d="m576.55 589.67h-185.79c-8.67 0-15.71-7.03-15.71-15.71v-205.32c0-8.67 7.03-15.71 15.71-15.71h185.79c8.67 0 15.71 7.03 15.71 15.71v205.32c0 8.68-7.03 15.71-15.71 15.71z" fill="url(#f)"/><circle cx="593.4" cy="558.61" fill="url(#g)" r="54.47"/><path d="m590.39 531.03v28.2c8.63 4.61 17.25 9.22 25.88 13.83" style="fill:none;stroke:#fff;stroke-width:15.5577;stroke-linecap:round;stroke-linejoin:round;stroke-miterlimit:10"/><path d="m426.48 409.26h114.36" style="fill:none;stroke:#fff;stroke-width:19.4471;stroke-linecap:round;stroke-linejoin:round;stroke-miterlimit:10"/><path d="m426.48 453.08h114.36" style="fill:none;stroke:#fff;stroke-width:19.4471;stroke-linecap:round;stroke-linejoin:round;stroke-miterlimit:10"/><path d="m426.48 496.89h114.36" style="fill:none;stroke:#fff;stroke-width:19.4471;stroke-linecap:round;stroke-linejoin:round;stroke-miterlimit:10"/><path d="m426.48 540.71h72.47" style="fill:none;stroke:#fff;stroke-width:19.4471;stroke-linecap:round;stroke-linejoin:round;stroke-miterlimit:10"/><path d="m534.48 338.2h-17.99v-2.54c0-18.05-14.63-32.69-32.69-32.69s-32.69 14.63-32.69 32.69v2.54h-18.29c-2.33 0-4.23 1.89-4.23 4.23v29.32c0 2.33 1.89 4.23 4.23 4.23h101.65c2.33 0 4.23-1.89 4.23-4.23v-29.32c.01-2.34-1.88-4.23-4.22-4.23zm-50.82 8.15c-6.38 0-11.56-5.17-11.56-11.56s5.17-11.56 11.56-11.56 11.56 5.17 11.56 11.56-5.18 11.56-11.56 11.56z" fill="url(#h)"/></svg>